<svg width="388" height="474" viewBox="0 0 388 474" fill="none" xmlns="http://www.w3.org/2000/svg">
<path d="M386.025 138.042L346.525 114.469C345.192 113.673 343.5 114.634 343.5 116.186V146.128C343.5 146.843 343.882 147.504 344.501 147.861L356.094 154.544C357.429 155.313 357.429 157.24 356.094 158.009L195.001 250.875C194.382 251.232 194 251.892 194 252.607V433.62C194 435.159 192.334 436.122 191.001 435.353L173.501 425.265C172.882 424.908 172.5 424.247 172.5 423.532V235.51C172.5 234.795 172.882 234.134 173.501 233.777L331.499 142.696C332.118 142.339 332.5 141.678 332.5 140.963V105.27C332.5 103.731 330.834 102.768 329.501 103.537L162.25 199.952C161.63 200.309 161.249 200.97 161.249 201.685V414.736C161.249 416.275 159.583 417.237 158.25 416.469L138.001 404.796C137.382 404.439 137 403.778 137 403.063V215.536C137 214.821 137.382 214.16 138.001 213.803L150.499 206.598C151.118 206.241 151.5 205.581 151.5 204.866V194.762C151.5 194.047 151.882 193.386 152.501 193.029L295.24 110.745C295.859 110.387 296.241 109.727 296.241 109.012V70.6944C296.241 69.1554 294.575 68.193 293.242 68.9617L127.501 164.506C126.882 164.864 126.5 165.524 126.5 166.239V394.618C126.5 396.157 124.834 397.119 123.501 396.35L102.645 384.327C102.025 383.97 101.644 383.309 101.644 382.594V197.192C101.644 196.477 102.025 195.816 102.645 195.459L114.499 188.626C115.118 188.269 115.5 187.608 115.5 186.893V162.023C115.5 161.308 115.882 160.648 116.501 160.29L260.472 77.2956C261.091 76.9385 261.473 76.2779 261.473 75.5629V37.2454C261.473 35.7064 259.808 34.7441 258.474 35.5127L91.0011 132.056C90.3817 132.413 90 133.074 90 133.789V372.945C90 374.484 88.3345 375.446 87.0011 374.677L66.5011 362.86C65.8817 362.503 65.5 361.842 65.5 361.127V176.1C65.5 175.385 65.8817 174.725 66.5011 174.367L79.0066 167.158C79.626 166.801 80.0077 166.141 80.0077 165.426V126.799C80.0077 126.084 80.3894 125.424 81.0089 125.067L224.499 42.3489C225.118 41.9918 225.5 41.3312 225.5 40.6162V3.00298C225.5 1.46397 223.834 0.501641 222.501 1.27027L56.2499 97.1093C55.6304 97.4664 55.2487 98.127 55.2487 98.842V354.328C55.2487 355.867 53.5832 356.829 52.2499 356.061L32.0011 344.388C31.3817 344.031 31 343.37 31 342.655V157.432C31 156.717 31.3817 156.056 32.0011 155.699L41.5681 150.184C42.1875 149.827 42.5692 149.167 42.5692 148.452V118.122C42.5692 116.583 40.9037 115.621 39.5704 116.389L2.00114 138.047C1.3817 138.404 1 139.064 1 139.78V361.127C1 361.842 1.3817 362.503 2.00114 362.86L193.001 472.966C193.619 473.322 194.381 473.322 194.999 472.966L385.999 362.86C386.618 362.503 387 361.842 387 361.127V139.759C387 139.055 386.63 138.403 386.025 138.042Z" fill="black"/>
</svg>
